<?xml version="1.0" encoding="UTF-8"?>
<svg xmlns="http://www.w3.org/2000/svg" id="Logo" viewBox="0 0 1366 768">
  <defs>
    <style>
      .cls-1 {
        fill-rule: evenodd;
      }

      .cls-1, .cls-2 {
        fill: #eb001f;
      }
    </style>
  </defs>
  <g>
    <path class="cls-1" d="M649.3666044503,272.1253318216c0-9.5313764503-6.8906009755-14.263983476-13.2464040094-14.263983476-6.3426769816,0-13.151860957,4.7968182546-13.151860957,14.263983476v.0846985132c0,9.4567442002,6.746657848,14.3274851885,13.1286686416,14.3391035186,3.2708703299-.005809165,6.5722942073-1.2838254734,9.0556013992-3.6318367681,2.4775423717-2.3410935104,4.1921329534-5.8775003308,4.2139949256-10.6719239677v-.1200412958h0ZM659.7561852592,272.1253318216v.0846985132c0,14.7342154308-11.4546978704,23.304507653-22.6943679449,23.304507653h-.0072725425c-3.558579206-.0238131422-7.069266059-.8799776414-10.2704264085-2.4363904239-1.2946899424-.6174122506-2.5123973619-1.3810292121-3.6298412535-2.274487664v18.7503439869h-10.0393901501v-59.7148020457l10.0393901501.0253652092v3.663676314c1.1174438916-.8935471414,2.3351513111-1.6562772075,3.6298412535-2.2712504956,3.2011603495-1.5590734688,6.7103394803-2.3822898029,10.2704264085-2.4092070791l.0072725425-.0000886895c11.2396700745,0,22.6943679449,8.5730859428,22.6943679449,23.2776347216h0ZM548.6358612651,272.1253318216c0-8.7015527452-6.3616121989-14.263983476-13.8377858793-14.263983476-7.4732469254,0-13.7941727967,5.5585283909-13.7941727967,14.263983476v.0752530769c0,8.7211974789,6.3354709562,14.3485489549,13.7941727967,14.3485489549,7.4674377604,0,13.8377858793-5.631032092,13.8377858793-14.3485489549v-.0752530769h0ZM558.9775053763,272.1253318216v.0752530769c0,13.803329992-11.0986980466,23.3151060534-24.1794299905,23.3151060534-13.083614354,0-24.1735764806-9.4639723979-24.1735764806-23.3151060534v-.0752530769c0-13.8049264037,11.0928888815-23.2776347216,24.1735764806-23.2776347216,13.0792685664,0,24.1794299905,9.5108891659,24.1794299905,23.2776347216h0ZM595.6636685911,274.6781272701c0,3.9677927554-1.1217896792,6.8717987925-2.8640735706,8.750465028-.9488672436.9908839143-2.0967981654,1.7684694788-3.3726194076,2.2810950349-1.2743356924.5136454858-2.6431700924.7499144272-4.0177914851.6928427065l-.0406863277-.0019068251-.0392229502.0019068251c-1.34848015.0576925474-2.6954747501-.1573795933-3.9567730797-.6325338176-1.2598349522-.4732917439-2.4092292515-1.1948698622-3.3813331552-2.1216755821-1.737893759-1.7758307108-2.914870506-4.5667575811-2.914870506-8.6127745131v-25.1709790764h-9.9914534524v26.3942295923c0,5.8376343814,1.7451441291,10.6492637896,5.0189412139,14.0541440183,3.2767238397,3.4078956732,7.9469599447,5.2059431144,13.3364682399,5.2059431144,4.783559168,0,9.061454909-1.3867940324,12.2146563883-3.7925422193v2.7767365435h10.03650774v-44.6385110493h-10.0277496477v24.8135602198h0ZM492.4855584524,254.0469884987v-4.1824214484h-9.9928946574l-.0174053227,44.6385110493h9.9899679025v-23.0865531022c0-4.0892974287,1.3397664024-7.0250986669,3.4104011528-9.0441604482,2.3961697163-2.119369654,5.5203031981-3.2315808626,8.7170734152-3.1035131631l.02035425.0008425507h3.8564873795v-9.8418341941h-2.7841199479c-4.9840862237,0-9.8097950968,1.7341466258-13.1998641719,4.6191287561h0ZM390.0767541948,272.1251987873c0-8.7021292273-6.3562686539-14.2638504417-13.8311119911-14.2638504417-7.4716283413,0-13.7935963147,5.5585283909-13.7935963147,14.2638504417v.0752530769c0,8.7213305133,6.3376660224,14.3485046101,13.7935963147,14.3485046101,7.4680142424,0,13.8311119911-5.6299678175,13.8311119911-14.3485046101v-.0752530769h0ZM400.4266464335,272.1251987873v.0752530769c0,13.8034630263-11.0992745285,23.3155495011-24.1810042298,23.3155495011-13.0825944243,0-24.1432224847-9.465701844-24.1432224847-23.3155495011v-.0752530769c0-13.8036404053,11.0712264608-23.2775016873,24.1432224847-23.2775016873,13.0711313009,0,24.1810042298,9.5106230973,24.1810042298,23.2775016873h0ZM285.2351608233,272.1251987873c0-8.7021292273-6.3561134473-14.2638504417-13.8310898188-14.2638504417-7.4716061689,0-13.7933967632,5.5585283909-13.7933967632,14.2638504417v.0752530769c0,8.7213305133,6.3376216776,14.3485046101,13.7933967632,14.3485046101,7.4590122539,0,13.8310898188-5.6303669204,13.8310898188-14.3485046101v-.0752530769h0ZM295.5849643725,272.1251987873v.0752530769c0,13.8035960606-11.1087199649,23.3155495011-24.1808933679,23.3155495011-13.1018843998,0-24.1432003123-9.4661452917-24.1432003123-23.3155495011v-.0752530769c0-13.8036404053,11.0711599436-23.277546032,24.1432003123-23.277546032,13.0711534733,0,24.1808933679,9.5106674421,24.1808933679,23.277546032h0ZM338.7350210011,250.5355034398h11.1448831259v9.0983497587h-11.1541955279v17.9674813946c0,1.9123682617.0941661219,3.8939587113.8380053154,5.3922354986.3583279244.7217554974.8610867688,1.3142903313,1.5790507883,1.7348561422.7237953569.4238473239,1.7306433889.7105362703,3.1529354107.7105362703h4.6726972398v9.0606123584h-4.6726972398c-3.8291931728,0-8.3599206273-.4594561753-11.769168816-4.2475195727-1.6351469239-1.8168052795-2.6059426569-3.4757875181-3.1485452783-5.4068249284-.5334232538-1.8976014528-.6351279867-4.0011843682-.6351279867-6.6511835554v-18.5601936076h-13.6311170727v17.9674813946c0,1.9123682617.0940996047,3.8939587113.8379387982,5.3922354986.3583500968.7217554974.8611311136,1.3142903313,1.5790729607,1.7348561422.7237953569.4238473239,1.7306433889.7105362703,3.1532014793.7105362703h4.6724311711v9.0606123584h-4.6724311711c-3.8294592414,0-8.3601645235-.4594561753-11.7694348846-4.2475195727-1.6351247516-1.8168052795-2.6059648293-3.4757875181-3.148523106-5.4068249284-.5334232538-1.8976014528-.6351945039-4.0011843682-.6351945039-6.6511835554v-18.5601936076h-6.5860854311v-9.0983497587h6.5860854311v-8.6624850018h9.9922073135v8.6624850018h13.6218490155v-8.6624850018h9.9921629687v8.6624850018h0Z"></path>
    <path class="cls-2" d="M448.8219859107,294.3039539706c-3.2840630945,0-6.3032210609-.5703698929-9.0587413879-1.713644656-2.755520327-1.1407397858-5.1257241041-2.7327055313-7.1093438428-4.7758972365-1.9848872273-2.0406567279-3.5337583587-4.4590250738-4.6478808828-7.257640015-1.1128550355-2.7986149412-1.6705500418-5.8532625898-1.6705500418-9.1664779232s.5576950064-6.367862982,1.6705500418-9.1664779232c1.1141225241-2.7986149411,2.6629936555-5.2169832871,4.6478808828-7.2601749923,1.9836197387-2.0406567279,4.3538235158-3.6326224734,7.1093438428-4.7758972365,2.755520327-1.1407397858,5.7746782935-1.713644656,9.0587413879-1.713644656,1.684492417,0,3.2701207193.1723784565,4.7543499295.5146003922,1.4842292102.3422219357,2.8619893737.8086577593,4.1332804905,1.3917025387,1.2700236282.5855797567,2.4132983913,1.285233492,3.4260218233,2.0989612059,1.0139909207.8137277139,1.8771506919,1.6933648376,2.5920142911,2.6338414166v-5.3538720613h10.8788550906v38.9347163779c0,4.0838484332-.6210694389,7.6226767464-1.8632083168,10.6215548944-1.2421388779,2.998878148-2.9557835338,5.4679460399-5.1396664793,7.4097386531-2.1838829455,1.9417926132-4.7619548614,3.3841946978-7.7304132818,4.3272062541-2.9709933977.9404765789-6.182809639,1.4119823571-9.6379837013,1.4119823571-4.9672880228,0-9.4440579377-.7706330997-13.4265072788-2.3118992992-3.9837168297-1.5438011768-7.3032696064-3.7416264974-9.95865833-6.5960109392l6.4248999713-7.4097386531c1.2560812531,1.1990442638,2.5121625061,2.2409199348,3.7682437591,3.1256270131,1.2560812531.8847070783,2.5489196769,1.6274554277,3.8772477831,2.2282450483,1.3270606175.5982546432,2.704820781,1.0494806029,4.1332804905,1.3486079245,1.4271922209.2991273216,2.94057367.4486909824,4.5388768588.4486909824,1.8847556239,0,3.6769845762-.2560327074,5.3754193684-.7706330997,1.6984347922-.5146003923,3.1978738662-1.3283281061,4.498317222-2.4411831416,1.2979083785-1.1128550355,2.3334466063-2.5273723699,3.104079706-4.2410170259.7719005884-1.7111096787,1.1572171383-3.7669762704,1.1572171383-6.1675997752v-2.0127719776c-.7148635991.9430115562-1.5780233703,1.8201137027-2.5920142911,2.6338414165-1.012723432.8137277139-2.1559981951,1.520986381-3.4260218233,2.1217760016-1.2712911169.5982546432-2.6490512803,1.0646904667-4.1332804905,1.3917025387-1.4842292102.3295470492-3.0698575124.4917855965-4.7543499295.4917855965ZM451.0920580845,285.1374760474c1.8556033849,0,3.5984002799-.3194071401,5.2258557076-.9632913747,1.6274554277-.6413492574,3.0407052735-1.553941086,4.2397495372-2.7403104632,1.1990442637-1.1838343999,2.1483932633-2.6262364846,2.8480469986-4.3272062541.6996537352-1.6984347922,1.0494806029-3.6022027458,1.0494806029-5.7163738155s-.3498268677-4.0179390233-1.0494806029-5.7189087928c-.6996537353-1.6984347922-1.6490027348-3.1408368769-2.8480469986-4.3246712768-1.1990442637-1.1863693772-2.6122941094-2.091356274-4.2397495372-2.7200306448-1.6274554277-.6286743708-3.3702523227-.9430115562-5.2258557076-.9430115562-1.8847556239,0-3.6402274053.3143371854-5.2676828331.9430115562-1.6274554277.6286743709-3.0407052735,1.5336612676-4.2410170259,2.7200306448-1.1990442637,1.1838343999-2.1407883313,2.6262364846-2.8264996915,4.3246712768-.6857113601,1.7009697695-1.0279332959,3.6047377231-1.0279332959,5.7189087928s.3422219358,4.0179390233,1.0279332959,5.7163738155c.6857113601,1.7009697695,1.6274554277,3.1433718542,2.8264996915,4.3272062541,1.2003117524,1.1863693772,2.6135615981,2.0989612059,4.2410170259,2.7403104632,1.6274554277.6438842346,3.3829272092.9632913747,5.2676828331.9632913747Z"></path>
  </g>
  <path class="cls-2" d="M726.8386050673,524.3900378101c-28.296875,0-52.6796875-10.126953125-68.65625-28.5166015625-15.3662109375-17.6865234375-21.798828125-41.8115234375-18.11328125-67.9306640625,6.8623046875-49.0146484375,47.494140625-83.24609375,98.8095703125-83.24609375,29.38671875,0,54.2626953125,10.130859375,70.0439453125,28.525390625,13.9912109375,16.3095703125,19.6884765625,38.345703125,16.0419921875,62.0498046875-.5390625,3.7724609375-1.40234375,9.0859375-2.8681640625,13.439453125h-134.8154296875l.44140625,2.3662109375c4.0048828125,21.486328125,20.0419921875,34.3134765625,42.900390625,34.3134765625,14.89453125,0,28.55078125-6.154296875,36.7587890625-16.51171875h49.6796875c-7.0419921875,16.1728515625-18.4375,29.7412109375-33.099609375,39.3701171875-16.0771484375,10.5595703125-35.830078125,16.140625-57.123046875,16.140625ZM737.1589175673,383.6966784351c-20.119140625,0-37.572265625,12.6123046875-45.548828125,32.916015625l-1.0732421875,2.7314453125h87.798828125l-.326171875-2.283203125c-2.939453125-20.580078125-18.5927734375-33.3642578125-40.8505859375-33.3642578125Z"></path>
  <path class="cls-2" d="M1016.2554894798,524.7400378101c-35.0184535665,0-65.2773958063-12.628289595-85.2027104005-35.5576991246-19.3449563428-22.2610892369-27.4451130243-52.6424134473-22.8089397773-85.5469096929,8.1269277376-58.452688725,60.041742125-102.5293203369,120.7604095251-102.5293203369,35.1867287762,0,65.5604041134,12.7105149815,85.5258752917,35.7890775379,19.2627309563,22.26873811,27.2491106494,52.5640124973,22.4867309952,85.3069262973-8.4405315373,58.4574692708-60.3563020339,102.5379253192-120.7613656343,102.5379253192ZM1026.1359213904,344.6760024204c-35.2766030359,0-65.8405440931,26.7500216754-71.0943638481,62.2235831953-2.8702396551,20.56781994,2.1464650319,39.4662733118,14.1226881896,53.2294644627,11.8060357298,13.5691009943,29.4357322654,21.0410939671,49.6421429484,21.0410939671,35.4573076644,0,66.1579723294-26.7500216754,71.4117920844-62.2235831953,2.8664152185-20.5429611022-2.140728377-39.414643418-14.0978293518-53.1548879493-11.8481045322-13.6169064515-29.5992269293-21.1156704804-49.9844300225-21.1156704804Z"></path>
  <path class="cls-2" d="M551.3913649648,520.0388076212l13.0460736459-93.7448961135c1.4285302996-11.4405442735-1.2909528421-22.0573755419-7.6544249327-29.9238401778-5.7068065524-7.0547062392-14.0489300063-11.3895630856-23.487916526-12.2062056603-1.4653737414-.1258082845-2.9246229897-.1871880956-4.3376969682-.181374496-20.54865422.084540265-34.8767533713,14.1250518662-38.3282226302,37.5593718114l-13.4588641374,98.8023012449-46.1773435723.1899805613,15.2792375094-109.9475801075c3.8537926432-30.0864220722,32.5216010535-54.3959767469,57.5403177848-62.0038538507,8.1022359988-2.4640184552,16.7386941006-3.7319824525,25.6683060286-3.7687202238,16.3045495132-.0670793777,31.8183669959,3.9716682182,44.8658144568,11.6797734881,27.0160903998,15.9612533723,40.3609436738,39.7014738851,36.6149547634,65.1331161717l-13.393868404,98.2219508084-46.1763670181.1899765436Z"></path>
  <path class="cls-2" d="M866.0782535048,524.7900378101c-13.6845703125,0-24.8173828125-11.1328125-24.8173828125-24.8173828125s11.1328125-24.8173828125,24.8173828125-24.8173828125,24.8173828125,11.1328125,24.8173828125,24.8173828125-11.1328125,24.8173828125-24.8173828125,24.8173828125Z"></path>
  <path class="cls-2" d="M294.1247378798,475.5179674976c-3.2182617188-2.0244140625-6.1088867188-4.4838867188-8.5986328125-7.3544921875-7.880859375-9.0859375-11.16015625-21.5185546875-9.2314453125-35.0244140625,3.59375-23.7177734375,23.9658203125-41.603515625,47.3857421875-41.603515625,3.4575195312,0,6.7998046875.3305664062,9.9951171875.96875l6.77734375-44.7255859375c-4.2221679688-.4951171875-8.5576171875-.7470703125-12.9892578125-.7470703125-24.291015625,0-47.5078125,8.14453125-65.373046875,22.9326171875-18.44140625,15.2646484375-30.00390625,36.1220703125-33.4365234375,60.3134765625-3.689453125,26.1455078125,2.7529296875,50.2978515625,18.1396484375,68.0078125,10.3011743864,11.8573904503,24.0807604551,20.2679216057,40.128723151,24.7339559064l7.2023315365-47.5015340314Z"></path>
  <path class="cls-2" d="M331.5567517106,406.6343057807c15.8125-.9189453125,25.0014648438-5.17578125,31.6396484375-14.3564453125,6.3203125-8.7397460937,10.1396484375-22.0517578125,13.9482421875-42.3334960937h44.9365234375c-2.6708984375,19.7416992188-10.583984375,78.3901367187-12.6796875,95.4780273437-3.64453125,29.7294921875-15.685546875,51.6064453125-35.7900390625,65.0224609375-15.34765625,10.2407226562-34.5483398438,15.2470703125-60.1616210938,15.681640625l-.0092773438.0004882812c.0034179688,0,.0063476562-.0004882812.0092773438-.0004882812l6.7133789062-44.3051757812c12.7749023438-.88671875,22.3369140625-3.5131835938,29.025390625-7.9760742188,4.9140625-3.2802734375,11.8486328125-9.568359375,15.314453125-26.24609375l.712890625-3.4326171875-3.3173828125,1.1328125c-9.9916992188,3.4106445312-24.05859375,5.2568359375-37.0356445312,5.5087890625l6.6938476562-44.173828125Z"></path>
</svg>
