<?xml version="1.0" encoding="UTF-8" standalone="no"?>
<svg
   id="Logo"
   viewBox="0 0 910.72174 284.25397"
   version="1.1"
   width="910.72174"
   height="284.25397"
   xmlns="http://www.w3.org/2000/svg"
   xmlns:svg="http://www.w3.org/2000/svg">
  <defs
     id="defs1">
    <style
       id="style1">
      .cls-1 {
        fill-rule: evenodd;
      }

      .cls-1, .cls-2 {
        fill: #eb001f;
      }
    </style>
  </defs>
  <g
     id="g2"
     transform="translate(-227.63913,-241.87302)">
    <path
       class="cls-1"
       d="m 649.3666,272.12533 c 0,-9.53137 -6.8906,-14.26398 -13.2464,-14.26398 -6.34268,0 -13.15186,4.79682 -13.15186,14.26398 v 0.0847 c 0,9.45674 6.74666,14.32749 13.12867,14.3391 3.27087,-0.006 6.57229,-1.28382 9.0556,-3.63183 2.47754,-2.3411 4.19213,-5.8775 4.21399,-10.67193 z m 10.38959,0 v 0.0847 c 0,14.73422 -11.4547,23.30451 -22.69437,23.30451 h -0.007 c -3.55857,-0.0238 -7.06926,-0.87998 -10.27042,-2.43639 -1.29469,-0.61741 -2.5124,-1.38103 -3.62984,-2.27449 V 309.554 h -10.03939 v -59.7148 l 10.03939,0.0254 v 3.66367 c 1.11744,-0.89354 2.33515,-1.65627 3.62984,-2.27125 3.20116,-1.55907 6.71034,-2.38229 10.27042,-2.4092 l 0.007,-9e-5 c 11.23967,0 22.69437,8.57308 22.69437,23.27763 z m -111.12033,0 c 0,-8.70155 -6.36161,-14.26398 -13.83778,-14.26398 -7.47325,0 -13.79418,5.55853 -13.79418,14.26398 v 0.0752 c 0,8.7212 6.33547,14.34855 13.79418,14.34855 7.46743,0 13.83778,-5.63103 13.83778,-14.34855 z m 10.34165,0 v 0.0752 c 0,13.80333 -11.0987,23.31511 -24.17943,23.31511 -13.08362,0 -24.17358,-9.46397 -24.17358,-23.31511 v -0.0752 c 0,-13.80492 11.09289,-23.27763 24.17358,-23.27763 13.07926,0 24.17943,9.51089 24.17943,23.27763 z m 36.68616,2.5528 c 0,3.96779 -1.12179,6.8718 -2.86407,8.75046 -0.94887,0.99089 -2.0968,1.76847 -3.37262,2.2811 -1.27434,0.51364 -2.64317,0.74991 -4.0178,0.69284 l -0.0407,-0.002 -0.0392,0.002 c -1.34848,0.0577 -2.69547,-0.15738 -3.95677,-0.63253 -1.25983,-0.4733 -2.40923,-1.19487 -3.38133,-2.12168 -1.7379,-1.77583 -2.91487,-4.56676 -2.91487,-8.61277 v -25.17098 h -9.99146 v 26.39423 c 0,5.83763 1.74515,10.64926 5.01895,14.05414 3.27672,3.4079 7.94696,5.20594 13.33646,5.20594 4.78356,0 9.06146,-1.38679 12.21466,-3.79254 v 2.77674 h 10.03651 v -44.63851 h -10.02775 v 24.81356 z M 492.48556,254.04699 v -4.18242 h -9.9929 l -0.0174,44.63851 h 9.98997 v -23.08656 c 0,-4.08929 1.33976,-7.02509 3.4104,-9.04416 2.39617,-2.11937 5.5203,-3.23158 8.71707,-3.10351 l 0.0204,8.4e-4 h 3.85648 v -9.84183 h -2.78412 c -4.98408,0 -9.80979,1.73415 -13.19986,4.61913 z M 390.07675,272.1252 c 0,-8.70213 -6.35626,-14.26385 -13.83111,-14.26385 -7.47163,0 -13.79359,5.55853 -13.79359,14.26385 v 0.0752 c 0,8.72133 6.33766,14.34851 13.79359,14.34851 7.46802,0 13.83111,-5.62997 13.83111,-14.34851 z m 10.3499,0 v 0.0752 c 0,13.80346 -11.09928,23.31555 -24.18101,23.31555 -13.08259,0 -24.14322,-9.4657 -24.14322,-23.31555 v -0.0752 c 0,-13.80364 11.07123,-23.2775 24.14322,-23.2775 13.07113,0 24.18101,9.51062 24.18101,23.2775 z m -115.19149,0 c 0,-8.70213 -6.35611,-14.26385 -13.83109,-14.26385 -7.47161,0 -13.7934,5.55853 -13.7934,14.26385 v 0.0752 c 0,8.72133 6.33763,14.34851 13.7934,14.34851 7.45901,0 13.83109,-5.63037 13.83109,-14.34851 z m 10.3498,0 v 0.0752 c 0,13.8036 -11.10872,23.31555 -24.18089,23.31555 -13.10188,0 -24.1432,-9.46614 -24.1432,-23.31555 v -0.0752 c 0,-13.80364 11.07116,-23.27755 24.1432,-23.27755 13.07115,0 24.18089,9.51067 24.18089,23.27755 z m 43.15006,-21.5897 h 11.14488 v 9.09835 h -11.15419 v 17.96748 c 0,1.91237 0.0942,3.89396 0.838,5.39224 0.35833,0.72176 0.86109,1.31429 1.57905,1.73486 0.7238,0.42384 1.73065,0.71053 3.15294,0.71053 h 4.6727 v 9.06061 h -4.6727 c -3.82919,0 -8.35992,-0.45945 -11.76917,-4.24751 -1.63515,-1.81681 -2.60594,-3.47579 -3.14854,-5.40683 -0.53343,-1.8976 -0.63513,-4.00118 -0.63513,-6.65118 v -18.5602 h -13.63112 v 17.96748 c 0,1.91237 0.0941,3.89396 0.83794,5.39224 0.35835,0.72176 0.86113,1.31429 1.57907,1.73486 0.7238,0.42384 1.73065,0.71053 3.1532,0.71053 h 4.67244 v 9.06061 h -4.67244 c -3.82946,0 -8.36016,-0.45945 -11.76943,-4.24751 -1.63513,-1.81681 -2.60597,-3.47579 -3.14852,-5.40683 -0.53343,-1.8976 -0.6352,-4.00118 -0.6352,-6.65118 v -18.5602 h -6.58608 v -9.09835 h 6.58608 v -8.66248 h 9.99221 v 8.66248 h 13.62185 v -8.66248 h 9.99216 z"
       id="path1" />
    <path
       class="cls-2"
       d="m 448.82199,294.30395 c -3.28407,0 -6.30323,-0.57037 -9.05875,-1.71364 -2.75552,-1.14074 -5.12572,-2.73271 -7.10934,-4.7759 -1.98489,-2.04065 -3.53376,-4.45902 -4.64788,-7.25764 -1.11286,-2.79861 -1.67055,-5.85326 -1.67055,-9.16648 0,-3.31321 0.55769,-6.36786 1.67055,-9.16647 1.11412,-2.79862 2.66299,-5.21699 4.64788,-7.26018 1.98362,-2.04066 4.35382,-3.63262 7.10934,-4.7759 2.75552,-1.14074 5.77468,-1.71364 9.05875,-1.71364 1.68449,0 3.27012,0.17238 4.75435,0.5146 1.48423,0.34222 2.86199,0.80866 4.13328,1.3917 1.27002,0.58558 2.41329,1.28524 3.42602,2.09896 1.01399,0.81373 1.87715,1.69337 2.59201,2.63384 v -5.35387 h 10.87886 v 38.93472 c 0,4.08385 -0.62107,7.62268 -1.86321,10.62155 -1.24214,2.99888 -2.95578,5.46795 -5.13967,7.40974 -2.18388,1.9418 -4.76195,3.3842 -7.73041,4.32721 -2.97099,0.94048 -6.18281,1.41198 -9.63798,1.41198 -4.96729,0 -9.44406,-0.77063 -13.42651,-2.3119 -3.98372,-1.5438 -7.30327,-3.74162 -9.95866,-6.59601 l 6.4249,-7.40974 c 1.25608,1.19905 2.51216,2.24092 3.76824,3.12563 1.25609,0.88471 2.54892,1.62745 3.87725,2.22824 1.32706,0.59826 2.70482,1.04949 4.13328,1.34861 1.42719,0.29913 2.94058,0.44869 4.53888,0.44869 1.88475,0 3.67698,-0.25603 5.37542,-0.77063 1.69843,-0.5146 3.19787,-1.32833 4.49832,-2.44118 1.2979,-1.11286 2.33344,-2.52738 3.10408,-4.24102 0.7719,-1.71111 1.15721,-3.76698 1.15721,-6.1676 v -2.01277 c -0.71486,0.94301 -1.57802,1.82011 -2.59201,2.63384 -1.01273,0.81373 -2.156,1.52099 -3.42602,2.12178 -1.27129,0.59825 -2.64905,1.06469 -4.13328,1.3917 -1.48423,0.32955 -3.06986,0.49178 -4.75435,0.49178 z m 2.27007,-9.16647 c 1.8556,0 3.5984,-0.31941 5.22585,-0.9633 1.62746,-0.64134 3.04071,-1.55394 4.23975,-2.74031 1.19905,-1.18383 2.1484,-2.62623 2.84805,-4.3272 0.69965,-1.69844 1.04948,-3.6022 1.04948,-5.71638 0,-2.11417 -0.34983,-4.01793 -1.04948,-5.7189 -0.69965,-1.69844 -1.649,-3.14084 -2.84805,-4.32468 -1.19904,-1.18637 -2.61229,-2.09135 -4.23975,-2.72003 -1.62745,-0.62867 -3.37025,-0.94301 -5.22585,-0.94301 -1.88476,0 -3.64023,0.31434 -5.26768,0.94301 -1.62746,0.62868 -3.04071,1.53366 -4.24102,2.72003 -1.19905,1.18384 -2.14079,2.62624 -2.8265,4.32468 -0.68571,1.70097 -1.02793,3.60473 -1.02793,5.7189 0,2.11418 0.34222,4.01794 1.02793,5.71638 0.68571,1.70097 1.62745,3.14337 2.8265,4.3272 1.20031,1.18637 2.61356,2.09897 4.24102,2.74031 1.62745,0.64389 3.38292,0.9633 5.26768,0.9633 z"
       id="path2" />
  </g>
  <path
     class="cls-2"
     d="m 499.19948,282.51702 c -28.29688,0 -52.67969,-10.12696 -68.65625,-28.5166 -15.36622,-17.68653 -21.79883,-41.81153 -18.11329,-67.93067 6.86231,-49.01465 47.49414,-83.24609 98.80957,-83.24609 29.38672,0 54.2627,10.13086 70.04395,28.52539 13.99121,16.30957 19.68848,38.3457 16.04199,62.0498 -0.53906,3.77246 -1.40234,9.08594 -2.86816,13.43946 H 459.64186 l 0.4414,2.36621 c 4.00489,21.48633 20.042,34.31347 42.90039,34.31347 14.89454,0 28.55079,-6.15429 36.75879,-16.51171 h 49.67969 c -7.04199,16.17285 -18.4375,29.74121 -33.09961,39.37011 -16.07715,10.55957 -35.83008,16.14063 -57.12304,16.14063 z m 10.32031,-140.69336 c -20.11914,0 -37.57227,12.6123 -45.54883,32.91601 l -1.07324,2.73145 h 87.79883 l -0.32618,-2.2832 c -2.93945,-20.58008 -18.59277,-33.36426 -40.85058,-33.36426 z"
     id="path3" />
  <path
     class="cls-2"
     d="m 788.61637,282.86702 c -35.01846,0 -65.27741,-12.62829 -85.20272,-35.5577 -19.34496,-22.26109 -27.44511,-52.64241 -22.80894,-85.54691 8.12693,-58.45269 60.04174,-102.529318 120.76036,-102.529318 35.1868,0 65.5605,12.71051 85.5259,35.78908 19.2628,22.268728 27.2491,52.564008 22.4868,85.306918 -8.4406,58.45747 -60.3563,102.53793 -120.7614,102.53793 z m 9.8804,-180.06404 c -35.27658,0 -65.84052,26.75002 -71.09434,62.22359 -2.87024,20.56782 2.14646,39.46627 14.12269,53.22946 11.80603,13.5691 29.43573,21.04109 49.64215,21.04109 35.4573,0 66.158,-26.75002 71.4118,-62.22358 2.8664,-20.54296 -2.1407,-39.41464 -14.0978,-53.15489 -11.8482,-13.6169 -29.5993,-21.11567 -49.9845,-21.11567 z"
     id="path4" />
  <path
     class="cls-2"
     d="m 323.75223,278.16579 13.04608,-93.7449 c 1.42853,-11.44054 -1.29095,-22.05737 -7.65443,-29.92384 -5.7068,-7.0547 -14.04893,-11.38956 -23.48791,-12.2062 -1.46538,-0.12581 -2.92463,-0.18719 -4.3377,-0.18138 -20.54865,0.0845 -34.87675,14.12505 -38.32822,37.55937 l -13.45887,98.8023 -46.17734,0.18998 15.27924,-109.94758 c 3.85379,-30.08642 32.5216,-54.39597 57.54032,-62.00385 8.10223,-2.46402 16.73869,-3.73198 25.6683,-3.76872 16.30455,-0.0671 31.81837,3.97167 44.86582,11.67977 27.01609,15.96126 40.36094,39.70148 36.61495,65.13312 l -13.39387,98.22195 z"
     id="path5" />
  <path
     class="cls-2"
     d="m 638.43912,282.91702 c -13.68457,0 -24.81738,-11.13281 -24.81738,-24.81739 0,-13.68457 11.13281,-24.81738 24.81738,-24.81738 13.68457,0 24.81739,11.13281 24.81739,24.81738 0,13.68458 -11.13282,24.81739 -24.81739,24.81739 z"
     id="path6" />
  <path
     class="cls-2"
     d="m 66.485611,233.64495 c -3.21826,-2.02442 -6.10889,-4.48389 -8.59863,-7.35449 -7.88086,-9.08594 -11.16016,-21.51856 -9.23145,-35.02442 3.59375,-23.71777 23.96582,-41.60351 47.38574,-41.60351 3.45752,0 6.799809,0.33056 9.995119,0.96875 l 6.77734,-44.72559 c -4.22217,-0.49512 -8.55761,-0.74707 -12.989249,-0.74707 -24.29102,0 -47.50782,8.14453 -65.37305,22.93262 -18.44141,15.26464 -30.0039103,36.12207 -33.4365303,60.31347 -3.68945,26.14551 2.75293,50.29785 18.1396503,68.00782 10.30118,11.85739 24.08076,20.26792 40.12873,24.73395 z"
     id="path7" />
  <path
     class="cls-2"
     d="m 103.91762,164.76129 c 15.8125,-0.91895 25.00147,-5.17579 31.63965,-14.35645 6.32031,-8.73975 10.13965,-22.05176 13.94824,-42.3335 h 44.93653 c -2.6709,19.7417 -10.58399,78.39014 -12.67969,95.47803 -3.64453,29.72949 -15.68555,51.60645 -35.79004,65.02246 -15.34766,10.24073 -34.54834,15.24707 -60.161619,15.68164 l -0.009,4.9e-4 c 0.003,0 0.006,-4.9e-4 0.009,-4.9e-4 l 6.71338,-44.30517 c 12.774899,-0.88672 22.336909,-3.51319 29.025389,-7.97608 4.91406,-3.28027 11.84863,-9.56836 15.31445,-26.24609 l 0.71289,-3.43262 -3.31738,1.13281 c -9.9917,3.41065 -24.0586,5.25684 -37.035649,5.50879 z"
     id="path8" />
</svg>
